<?xml version="1.0" encoding="UTF-8" standalone="no"?>
<!-- Created with Inkscape (http://www.inkscape.org/) -->

<svg
   xmlns:dc="http://purl.org/dc/elements/1.1/"
   xmlns:cc="http://creativecommons.org/ns#"
   xmlns:rdf="http://www.w3.org/1999/02/22-rdf-syntax-ns#"
   xmlns:svg="http://www.w3.org/2000/svg"
   xmlns="http://www.w3.org/2000/svg"
   xmlns:sodipodi="http://sodipodi.sourceforge.net/DTD/sodipodi-0.dtd"
   xmlns:inkscape="http://www.inkscape.org/namespaces/inkscape"
   width="192.40909mm"
   height="35.173595mm"
   viewBox="0 0 192.40909 35.173595"
   version="1.1"
   id="svg954"
   inkscape:version="0.92.3 (2405546, 2018-03-11)"
   sodipodi:docname="applitools_logo_for_website.svg">
  <defs
     id="defs948" />
  <sodipodi:namedview
     id="base"
     pagecolor="#ffffff"
     bordercolor="#666666"
     borderopacity="1.0"
     inkscape:pageopacity="0.0"
     inkscape:pageshadow="2"
     inkscape:zoom="0.35"
     inkscape:cx="-86.392283"
     inkscape:cy="-93.530219"
     inkscape:document-units="mm"
     inkscape:current-layer="layer1"
     showgrid="false"
     fit-margin-top="0"
     fit-margin-left="0"
     fit-margin-right="0"
     fit-margin-bottom="0"
     inkscape:window-width="1920"
     inkscape:window-height="1017"
     inkscape:window-x="1912"
     inkscape:window-y="-8"
     inkscape:window-maximized="1" />
  <metadata
     id="metadata951">
    <rdf:RDF>
      <cc:Work
         rdf:about="">
        <dc:format>image/svg+xml</dc:format>
        <dc:type
           rdf:resource="http://purl.org/dc/dcmitype/StillImage" />
        <dc:title></dc:title>
      </cc:Work>
    </rdf:RDF>
  </metadata>
  <g
     inkscape:label="Layer 1"
     inkscape:groupmode="layer"
     id="layer1"
     transform="translate(-5.8490297,-88.913199)">
    <g
       id="g833"
       transform="matrix(0.35277777,0,0,-0.35277777,52.730294,111.95777)">
      <path
         d="m 0,0 v 6.875 c -2.406,3.21 -6.99,4.929 -11.689,4.929 -5.731,0 -10.429,-3.094 -10.429,-8.365 0,-5.272 4.698,-8.251 10.429,-8.251 4.699,0 9.283,1.604 11.689,4.812 m 0,-13.294 v 5.845 c -3.782,-4.584 -10.314,-7.22 -17.534,-7.22 -8.825,0 -19.139,5.959 -19.139,18.336 0,13.065 10.314,17.878 19.139,17.878 7.449,0 13.867,-2.407 17.534,-6.762 v 6.992 c 0,5.614 -4.812,9.282 -12.147,9.282 -5.845,0 -11.346,-2.292 -15.93,-6.531 l -5.73,10.198 c 6.761,6.075 15.471,8.71 24.181,8.71 12.72,0 24.295,-5.043 24.295,-20.971 v -35.757 z"
         style="fill:#00a399;fill-opacity:1;fill-rule:nonzero;stroke:none"
         id="path835"
         inkscape:connector-curvature="0" />
    </g>
    <g
       id="g837"
       transform="matrix(0.35277777,0,0,-0.35277777,75.449324,106.86348)">
      <path
         d="m 0,0 c 0,9.512 -5.73,16.044 -14.096,16.044 -4.699,0 -9.971,-2.636 -12.491,-6.303 V -9.741 c 2.406,-3.553 7.792,-6.418 12.491,-6.418 C -5.73,-16.159 0,-9.626 0,0 m -26.587,-20.628 v -28.194 h -14.555 v 76.44 h 14.555 v -6.99 c 4.239,5.386 10.314,8.365 17.075,8.365 14.21,0 24.524,-10.542 24.524,-28.993 0,-18.451 -10.314,-29.11 -24.524,-29.11 -6.533,0 -12.492,2.751 -17.075,8.482"
         style="fill:#00a399;fill-opacity:1;fill-rule:nonzero;stroke:none"
         id="path839"
         inkscape:connector-curvature="0" />
    </g>
    <g
       id="g841"
       transform="matrix(0.35277777,0,0,-0.35277777,96.995583,106.86348)">
      <path
         d="m 0,0 c 0,9.512 -5.73,16.044 -14.096,16.044 -4.699,0 -9.971,-2.636 -12.491,-6.303 V -9.741 c 2.406,-3.553 7.792,-6.418 12.491,-6.418 C -5.73,-16.159 0,-9.626 0,0 m -26.587,-20.628 v -28.194 h -14.555 v 76.44 h 14.555 v -6.99 c 4.239,5.386 10.314,8.365 17.075,8.365 14.21,0 24.524,-10.542 24.524,-28.993 0,-18.451 -10.314,-29.11 -24.524,-29.11 -6.533,0 -12.492,2.751 -17.075,8.482"
         style="fill:#00a399;fill-opacity:1;fill-rule:nonzero;stroke:none"
         id="path843"
         inkscape:connector-curvature="0" />
    </g>
    <path
       d="m 104.02786,89.681197 h 5.13468 v 26.965983 h -5.13468 z"
       style="fill:#00a399;fill-opacity:1;fill-rule:nonzero;stroke:none;stroke-width:0.35277778"
       id="path845"
       inkscape:connector-curvature="0" />
    <path
       d="m 112.23347,97.120574 h 5.13468 v 19.526956 h -5.13468 z m -0.48542,-5.17525 c 0,-1.698272 1.37442,-3.032125 3.03247,-3.032125 1.69757,0 3.0727,1.333853 3.0727,3.032125 0,1.69792 -1.37513,3.072343 -3.0727,3.072343 -1.65805,0 -3.03247,-1.374423 -3.03247,-3.072343"
       style="fill:#00a399;fill-opacity:1;fill-rule:nonzero;stroke:none;stroke-width:0.35277778"
       id="path847"
       inkscape:connector-curvature="0" />
    <g
       id="g849"
       transform="matrix(0.35277777,0,0,-0.35277777,121.49063,111.75549)">
      <path
         d="m 0,0 v 28.765 h -9.169 v 12.72 H 0 V 56.613 H 14.555 V 41.485 h 11.23 V 28.765 H 14.555 V 3.896 c 0,-3.553 1.833,-6.188 5.042,-6.188 2.178,0 4.239,0.802 5.043,1.719 L 27.734,-11.69 C 25.557,-13.638 21.659,-15.242 15.585,-15.242 5.386,-15.242 0,-9.971 0,0"
         style="fill:#00a399;fill-opacity:1;fill-rule:nonzero;stroke:none"
         id="path851"
         inkscape:connector-curvature="0" />
    </g>
    <g
       id="g853"
       transform="matrix(0.35277777,0,0,-0.35277777,146.15107,106.86348)">
      <path
         d="m 0,0 c 0,8.596 -5.043,16.044 -14.21,16.044 -9.053,0 -14.096,-7.448 -14.096,-16.044 0,-8.71 5.043,-16.159 14.096,-16.159 C -5.043,-16.159 0,-8.71 0,0 m -43.434,0 c 0,15.7 11.002,28.993 29.224,28.993 C 4.126,28.993 15.128,15.7 15.128,0 c 0,-15.702 -11.002,-29.11 -29.338,-29.11 -18.222,0 -29.224,13.408 -29.224,29.11"
         style="fill:#00a399;fill-opacity:1;fill-rule:nonzero;stroke:none"
         id="path855"
         inkscape:connector-curvature="0" />
    </g>
    <g
       id="g857"
       transform="matrix(0.35277777,0,0,-0.35277777,167.37404,106.86348)">
      <path
         d="m 0,0 c 0,8.596 -5.043,16.044 -14.21,16.044 -9.055,0 -14.096,-7.448 -14.096,-16.044 0,-8.71 5.041,-16.159 14.096,-16.159 C -5.043,-16.159 0,-8.71 0,0 m -43.434,0 c 0,15.7 11.002,28.993 29.224,28.993 C 4.126,28.993 15.128,15.7 15.128,0 c 0,-15.702 -11.002,-29.11 -29.338,-29.11 -18.222,0 -29.224,13.408 -29.224,29.11"
         style="fill:#00a399;fill-opacity:1;fill-rule:nonzero;stroke:none"
         id="path859"
         inkscape:connector-curvature="0" />
    </g>
    <path
       d="m 174.52732,89.681197 h 5.13468 v 26.965983 h -5.13468 z"
       style="fill:#00a399;fill-opacity:1;fill-rule:nonzero;stroke:none;stroke-width:0.35277778"
       id="path861"
       inkscape:connector-curvature="0" />
    <g
       id="g863"
       transform="matrix(0.35277777,0,0,-0.35277777,181.03515,114.10033)">
      <path
         d="m 0,0 6.304,10.543 c 4.124,-3.896 12.263,-7.678 19.138,-7.678 6.304,0 9.284,2.406 9.284,5.845 0,9.053 -32.777,1.604 -32.777,23.379 0,9.282 8.022,17.418 22.691,17.418 9.284,0 16.732,-3.208 22.232,-7.563 L 41.028,31.63 c -3.323,3.439 -9.627,6.418 -16.388,6.418 -5.271,0 -8.71,-2.292 -8.71,-5.387 0,-8.137 32.891,-1.26 32.891,-23.608 0,-10.2 -8.71,-17.649 -24.067,-17.649 C 15.128,-8.596 5.845,-5.386 0,0"
         style="fill:#00a399;fill-opacity:1;fill-rule:nonzero;stroke:none"
         id="path865"
         inkscape:connector-curvature="0" />
    </g>
    <path
       inkscape:connector-curvature="0"
       id="path869"
       style="fill:#a7a9ac;fill-opacity:1;fill-rule:nonzero;stroke:none;stroke-width:0.35277778"
       d="m 22.142523,110.97504 c -0.453927,-0.31126 -0.953514,-0.6316 -1.375481,-0.90311 0.0021,-0.002 0.0021,-0.006 0.0056,-0.0113 -2.265892,-1.4351 -4.415014,-2.55235 -6.467828,-3.36197 0.01517,-0.006 0.03069,-0.0134 0.0448,-0.0198 2.781362,-1.27078 5.517134,-2.69027 7.852485,-4.2852 0.235655,1.32997 0.361244,2.7111 0.361244,4.12962 0,1.53317 -0.147814,3.02224 -0.420864,4.4517 m 6.155269,-13.176248 v -4.44606 c -1.653627,1.465941 -3.330885,2.853992 -4.959714,4.091535 -1.569156,-2.356908 -3.722864,-4.291542 -6.264628,-5.578122 1.819275,1.899355 3.274836,4.322586 4.232981,7.07531 -4.705725,3.230965 -10.464973,6.062125 -15.4573573,7.743775 5.9588393,2.45118 10.8093173,4.49639 15.3514813,7.70748 -0.955675,2.63596 -2.372077,4.95265 -4.127147,6.78533 2.454275,-1.24213 4.5466,-3.08963 6.099881,-5.33541 2.331155,1.76706 4.285191,3.44205 5.12445,4.21358 v -0.0127 -4.43265 -0.0134 c -0.517878,-0.42616 -1.124656,-0.91899 -1.795639,-1.44286 -0.0025,0.002 -0.0067,0.004 -0.0088,0.006 -0.528108,-0.41275 -1.094669,-0.84879 -1.691569,-1.29258 0.820208,-1.95333 1.281641,-4.09575 1.281641,-6.34471 0,-2.14454 -0.419805,-4.18994 -1.166988,-6.06707 1.184604,-0.89267 2.329438,-1.793885 3.381375,-2.657476"
       sodipodi:nodetypes="ccccccscccccccccccccccccscc" />
  </g>
</svg>
